<svg xmlns="http://www.w3.org/2000/svg" viewBox="0 0 118.73 38.3"><defs><style>.cls-1{fill:#ff6eff;fill-opacity:0.5;}.cls-2{fill:#fff;}</style></defs><g id="logos"><path class="cls-1" d="M21.23.41h80.43a19.15,19.15,0,0,1,19.15,19.15h0A19.15,19.15,0,0,1,101.66,38.7H21.23A19.14,19.14,0,0,1,2.08,19.56h0A19.15,19.15,0,0,1,21.23.41Z" transform="translate(-2.08 -0.41)"/><path class="cls-2" d="M34.49,24.72h2.23L31.83,14.23h-.07L26.87,24.72H29.1l.65-1.43h4.09Zm-3.94-3.18L31.8,18.8,33,21.54ZM41.7,24.92a4.86,4.86,0,0,0,3.55-1.57l-1.18-1.67a3.52,3.52,0,0,1-2.43,1.17,3.24,3.24,0,0,1,0-6.48,3.45,3.45,0,0,1,2.41,1.11l1.19-1.62a5.11,5.11,0,0,0-3.59-1.58,5.32,5.32,0,1,0,0,10.64Zm9.17,0a4.86,4.86,0,0,0,3.55-1.57l-1.18-1.67a3.54,3.54,0,0,1-2.44,1.17,3.24,3.24,0,0,1,0-6.48,3.49,3.49,0,0,1,2.42,1.11l1.19-1.62a5.15,5.15,0,0,0-3.59-1.58,5.32,5.32,0,1,0,0,10.64Zm10.87-8.41v-2H55.57V24.72h6.17v-2H57.63V20.56h3.53v-2H57.63v-2Zm1.51,8.21h2.06V21.39h1.54a3.45,3.45,0,1,0,0-6.9h-3.6Zm3.6-5.36H65.31V16.52h1.54a1.42,1.42,0,1,1,0,2.84Zm11.23-4.87H71v2H73.5v8.2h2.07v-8.2h2.51Zm6.75,10.23h2.23l-4.9-10.49H82.1L77.21,24.72h2.22l.66-1.43h4.09Zm-3.94-3.18,1.25-2.74,1.24,2.74Zm15,3.18L93,20.65A3,3,0,0,0,94.9,17.8a3.4,3.4,0,0,0-3.48-3.31H88.08V24.72h2.06V19.88l3.25,4.84Zm-5.78-8.2h1.32a1.29,1.29,0,1,1,0,2.58H90.14Z" transform="translate(-2.08 -0.41)"/></g></svg>