<svg xmlns="http://www.w3.org/2000/svg" viewBox="0 0 170.08 51.06"><defs><style>.cls-1{fill:#b3d7d0;fill-opacity:0.7;}.cls-2{fill:#fff;}</style></defs><g id="logos"><path class="cls-1" d="M199.79,230.13H327.35c11.74,0,21.26,11.44,21.26,25.54h0c0,14.1-9.52,25.53-21.26,25.53H199.79c-11.74,0-21.26-11.43-21.26-25.53h0C178.53,241.57,188.05,230.13,199.79,230.13Z" transform="translate(-178.53 -230.13)"/><path class="cls-2" d="M218.21,260.73h2V250.5h-2Zm10-10.26v5.73l-6.06-5.89H222v10.43h2.06V255l6.07,5.91h.1V250.47ZM232,260.73h2.06V250.5H232Zm8.74.2a4.86,4.86,0,0,0,3.55-1.57l-1.18-1.66a3.55,3.55,0,0,1-2.43,1.16,3.24,3.24,0,0,1,0-6.48,3.49,3.49,0,0,1,2.42,1.11l1.18-1.62a5.11,5.11,0,0,0-3.58-1.58,5.32,5.32,0,1,0,0,10.64Zm4.71-.2h2.06V250.5h-2.06Zm10.69,0h2.23l-4.89-10.49h-.07l-4.88,10.49h2.22l.65-1.43h4.1Zm-3.94-3.18,1.25-2.74,1.25,2.74Zm15,3.18-2.9-4.07a3,3,0,0,0,1.89-2.85,3.4,3.4,0,0,0-3.48-3.31h-3.34v10.23h2.05v-4.84l3.26,4.84Zm-5.77-8.19h1.32a1.29,1.29,0,1,1,0,2.57H261.5Zm13.63,8.39c2.19,0,3.71-1.18,3.71-3.05,0-1.57-1.07-2.44-2.76-3.24-1.18-.55-1.95-.76-1.95-1.37s.57-1,1.34-1a1.57,1.57,0,0,1,1.46.86l1.52-1.06a3,3,0,0,0-3-1.82c-1.88,0-3.38,1.17-3.38,2.94s1.26,2.26,2.41,2.83,2.3,1.13,2.3,1.87c0,.55-.65.94-1.61.94a2.17,2.17,0,0,1-2-1.05L271.53,259A3.81,3.81,0,0,0,275.13,260.93Zm11.12-8.41v-2h-6.17v10.23h6.17v-2h-4.11v-2.12h3.53v-2h-3.53v-2Zm4.58,8.41c2.19,0,3.71-1.18,3.71-3.05,0-1.57-1.06-2.44-2.76-3.24-1.17-.55-1.95-.76-1.95-1.37s.57-1,1.34-1a1.59,1.59,0,0,1,1.47.86l1.52-1.06a3,3,0,0,0-3-1.82c-1.88,0-3.38,1.17-3.38,2.94s1.27,2.26,2.42,2.83,2.29,1.13,2.29,1.87c0,.55-.64.94-1.61.94a2.18,2.18,0,0,1-2-1.05L287.23,259A3.82,3.82,0,0,0,290.83,260.93Zm8,0c2.19,0,3.72-1.18,3.72-3.05,0-1.57-1.07-2.44-2.76-3.24-1.18-.55-1.95-.76-1.95-1.37s.57-1,1.34-1a1.57,1.57,0,0,1,1.46.86l1.52-1.06a3,3,0,0,0-3-1.82,3.08,3.08,0,0,0-3.37,2.94c0,1.63,1.26,2.26,2.41,2.83s2.3,1.13,2.3,1.87c0,.55-.65.94-1.61.94a2.16,2.16,0,0,1-2-1.05L295.25,259A3.83,3.83,0,0,0,298.85,260.93Zm5-.2h2.06V250.5h-2.06ZM313,249.65l1.51-2.07H312.7l-1.19,2.07Zm-.45,11.28a5.32,5.32,0,1,0-5.31-5.3A5.34,5.34,0,0,0,312.51,260.93Zm0-2.08a3.25,3.25,0,1,1,3.25-3.24A3.24,3.24,0,0,1,312.51,258.85Z" transform="translate(-178.53 -230.13)"/></g></svg>