<svg xmlns="http://www.w3.org/2000/svg" xmlns:xlink="http://www.w3.org/1999/xlink" viewBox="0 0 223.85 223.85"><defs><style>.cls-1{fill:#000333;fill-opacity:0.8;}.cls-2{fill-opacity:0.6;fill:url(#Degradado_sin_nombre_2);}</style><radialGradient id="Degradado_sin_nombre_2" cx="11.33" cy="779.02" r="1" gradientTransform="matrix(165.78, -163.22, -886.7, -900.57, 689082.6, 703738.7)" gradientUnits="userSpaceOnUse"><stop offset="0" stop-color="#ff6eff"/><stop offset="1" stop-color="#fff" stop-opacity="0"/></radialGradient></defs><g id="logos"><path class="cls-1" d="M150.27,340.45,334.12,156.6a20,20,0,0,1,28.28,0h0a20,20,0,0,1,0,28.28L178.55,368.73a20,20,0,0,1-28.28,0h0A20,20,0,0,1,150.27,340.45Z" transform="translate(-144.41 -150.74)"/><path class="cls-2" d="M150.27,340.45,334.12,156.6a20,20,0,0,1,28.28,0h0a20,20,0,0,1,0,28.28L178.55,368.73a20,20,0,0,1-28.28,0h0A20,20,0,0,1,150.27,340.45Z" transform="translate(-144.41 -150.74)"/></g></svg>