<svg xmlns="http://www.w3.org/2000/svg" xmlns:xlink="http://www.w3.org/1999/xlink" viewBox="0 0 136 136"><defs><style>.cls-1,.cls-2,.cls-3,.cls-4,.cls-5,.cls-6{opacity:0.8;}.cls-1{fill:url(#Degradado_sin_nombre_79);}.cls-2{fill:url(#Degradado_sin_nombre_79-2);}.cls-3{fill:url(#Degradado_sin_nombre_79-3);}.cls-4{fill:url(#Degradado_sin_nombre_79-4);}.cls-5{fill:#003;}.cls-6{fill:none;stroke-miterlimit:10;stroke-width:3px;stroke:url(#Degradado_sin_nombre_79-5);}</style><linearGradient id="Degradado_sin_nombre_79" x1="33.71" y1="34.01" x2="85.62" y2="34.01" gradientUnits="userSpaceOnUse"><stop offset="0" stop-color="#fd5b78"/><stop offset="0.19" stop-color="#ff6eff"/><stop offset="0.41" stop-color="#7070cc"/><stop offset="0.6" stop-color="#06f"/><stop offset="0.81" stop-color="#50bfe6"/><stop offset="1" stop-color="#b3d7d0"/></linearGradient><linearGradient id="Degradado_sin_nombre_79-2" x1="52.69" y1="-392.81" x2="117.34" y2="-392.81" gradientTransform="translate(136.36 645.12) scale(1.31 1)" xlink:href="#Degradado_sin_nombre_79"/><linearGradient id="Degradado_sin_nombre_79-3" x1="1305.78" y1="-763.68" x2="1355.95" y2="-763.68" gradientTransform="translate(1406.38 -662.13) rotate(180)" xlink:href="#Degradado_sin_nombre_79"/><linearGradient id="Degradado_sin_nombre_79-4" x1="1099.29" y1="34.95" x2="1163.94" y2="34.95" gradientTransform="translate(-1223.17 224.74) scale(1.31 1)" xlink:href="#Degradado_sin_nombre_79"/><linearGradient id="Degradado_sin_nombre_79-5" x1="0" y1="68" x2="136" y2="68" xlink:href="#Degradado_sin_nombre_79"/></defs><g id="logos"><rect class="cls-1" x="35.4" y="27.74" width="50.16" height="12.54" rx="6.27"/><rect class="cls-2" x="208.17" y="246.04" width="81.88" height="12.54" rx="6.27" transform="translate(-280.95 153.89) rotate(-60)"/><rect class="cls-3" x="50.44" y="95.27" width="50.16" height="12.54" rx="6.27"/><rect class="cls-4" x="220.39" y="253.42" width="81.88" height="12.54" rx="6.27" transform="translate(429.89 -24.78) rotate(120)"/><rect class="cls-5" x="28.76" y="51.01" width="22.87" height="5.72" rx="2.86"/><rect class="cls-5" x="58.39" y="51.01" width="22.87" height="5.72" rx="2.86"/><rect class="cls-5" x="84.37" y="51.01" width="22.87" height="5.72" rx="2.86"/><rect class="cls-5" x="245.39" y="252.69" width="22.87" height="5.72" rx="2.86" transform="translate(326.65 323.09) rotate(-180)"/><rect class="cls-5" x="245.39" y="267.27" width="22.87" height="5.72" rx="2.86" transform="translate(326.65 352.26) rotate(180)"/><rect class="cls-5" x="209.27" y="252.82" width="37.33" height="5.72" rx="2.86" transform="translate(-294.45 137.24) rotate(-60)"/><rect class="cls-5" x="217.14" y="267.06" width="22.87" height="5.72" rx="2.86" transform="translate(270.15 351.83) rotate(180)"/><rect class="cls-5" x="231.22" y="253.13" width="33.73" height="5.72" rx="2.86" transform="matrix(0, 1, -1, 0, 317.08, -180.1)"/><rect class="cls-5" x="265.87" y="253.13" width="33.73" height="5.72" rx="2.86" transform="translate(-160.26 350.73) rotate(-90)"/><circle class="cls-6" cx="68" cy="68" r="66.5"/></g></svg>