<svg xmlns="http://www.w3.org/2000/svg" xmlns:xlink="http://www.w3.org/1999/xlink" viewBox="0 0 141.73 168.01"><defs><style>.cls-1,.cls-2,.cls-3,.cls-4,.cls-5,.cls-6{opacity:0.8;}.cls-1{fill:url(#Degradado_sin_nombre_79);}.cls-2{fill:url(#Degradado_sin_nombre_79-2);}.cls-3{fill:url(#Degradado_sin_nombre_79-3);}.cls-4{fill:url(#Degradado_sin_nombre_79-4);}.cls-5,.cls-7{fill:#fff;}.cls-6{fill:none;stroke-miterlimit:10;stroke-width:3px;stroke:url(#Degradado_sin_nombre_79-5);}</style><linearGradient id="Degradado_sin_nombre_79" x1="36.74" y1="34.01" x2="88.65" y2="34.01" gradientUnits="userSpaceOnUse"><stop offset="0" stop-color="#fd5b78"/><stop offset="0.19" stop-color="#ff6eff"/><stop offset="0.41" stop-color="#7070cc"/><stop offset="0.6" stop-color="#06f"/><stop offset="0.81" stop-color="#50bfe6"/><stop offset="1" stop-color="#b3d7d0"/></linearGradient><linearGradient id="Degradado_sin_nombre_79-2" x1="747.79" y1="-598.54" x2="812.44" y2="-598.54" gradientTransform="translate(-774.69 828.84) scale(1.31 1)" xlink:href="#Degradado_sin_nombre_79"/><linearGradient id="Degradado_sin_nombre_79-3" x1="2369.78" y1="322.32" x2="2419.95" y2="322.32" gradientTransform="translate(2473.41 423.87) rotate(180)" xlink:href="#Degradado_sin_nombre_79"/><linearGradient id="Degradado_sin_nombre_79-4" x1="1468.18" y1="1304.68" x2="1532.83" y2="1304.68" gradientTransform="translate(-1706.67 -1066.99) scale(1.31 1)" xlink:href="#Degradado_sin_nombre_79"/><linearGradient id="Degradado_sin_nombre_79-5" x1="3.03" y1="68" x2="139.03" y2="68" xlink:href="#Degradado_sin_nombre_79"/></defs><g id="logos"><rect class="cls-1" x="38.43" y="27.74" width="50.16" height="12.54" rx="6.27"/><rect class="cls-2" x="208.17" y="224.04" width="81.88" height="12.54" rx="6.27" transform="translate(-258.87 164.89) rotate(-60)"/><rect class="cls-3" x="53.46" y="95.27" width="50.16" height="12.54" rx="6.27"/><rect class="cls-4" x="220.39" y="231.42" width="81.88" height="12.54" rx="6.27" transform="translate(413.87 -35.78) rotate(120)"/><rect class="cls-5" x="31.79" y="51.01" width="22.87" height="5.72" rx="2.86"/><rect class="cls-5" x="61.42" y="51.01" width="22.87" height="5.72" rx="2.86"/><rect class="cls-5" x="87.4" y="51.01" width="22.87" height="5.72" rx="2.86"/><rect class="cls-5" x="245.39" y="230.69" width="22.87" height="5.72" rx="2.86" transform="translate(338.21 291.35) rotate(177.86)"/><rect class="cls-5" x="245.39" y="245.27" width="22.87" height="5.72" rx="2.86" transform="translate(329.68 330.26) rotate(180)"/><rect class="cls-5" x="209.27" y="230.82" width="37.33" height="5.72" rx="2.86" transform="translate(-272.37 148.24) rotate(-60)"/><rect class="cls-5" x="217.14" y="245.06" width="22.87" height="5.72" rx="2.86" transform="translate(273.18 329.83) rotate(180)"/><rect class="cls-5" x="231.22" y="231.13" width="33.73" height="5.72" rx="2.86" transform="translate(298.11 -180.1) rotate(90)"/><rect class="cls-5" x="265.87" y="231.13" width="33.73" height="5.72" rx="2.86" transform="matrix(0, -1, 1, 0, -135.23, 350.73)"/><circle class="cls-6" cx="71.03" cy="68" r="66.5"/><path class="cls-7" d="M196,323.51v7.11h-1.45l-.4-1.53a4.77,4.77,0,0,1-4,1.76,6.37,6.37,0,0,1,0-12.74,6,6,0,0,1,5,2.37l-2.49,1.66a3,3,0,0,0-2.46-1.15,3.49,3.49,0,0,0,0,7,2.92,2.92,0,0,0,3-2.06h-3v-2.38Z" transform="translate(-183.97 -166)"/><path class="cls-7" d="M205.67,325.09v5.53h-2.85v-.82a3.11,3.11,0,0,1-2.44,1.05c-1.2,0-3-.46-3-2.62,0-3,3.83-3,4.42-3h1.06v0a1.31,1.31,0,0,0-1.46-1.45,2.83,2.83,0,0,0-1.69.57l-1.86-1.27a5.3,5.3,0,0,1,4-1.6C204.66,321.5,205.67,323,205.67,325.09Zm-2.85,1.61h-.23c-1.42,0-2.37.27-2.37,1.16,0,.65.53.9,1.14.9a1.94,1.94,0,0,0,1.46-.63Z" transform="translate(-183.97 -166)"/><path class="cls-7" d="M216.15,321.71v8.91h-2.86v-.81a3.06,3.06,0,0,1-2.43,1,3.26,3.26,0,0,1-3.27-3.55v-5.59h2.85v4.82a1.43,1.43,0,1,0,2.85,0v-4.82Z" transform="translate(-183.97 -166)"/><path class="cls-7" d="M227.18,318.32v12.3h-2.85v-.86a3.07,3.07,0,0,1-2.51,1.09c-2.77,0-4.27-2.34-4.27-4.67s1.5-4.68,4.27-4.68a3.07,3.07,0,0,1,2.51,1.09v-4.27Zm-2.93,7.86a1.83,1.83,0,0,0-1.92-1.92,1.91,1.91,0,0,0,0,3.81A1.82,1.82,0,0,0,224.25,326.18Z" transform="translate(-183.97 -166)"/><path class="cls-7" d="M237.79,327h-6.43a2.11,2.11,0,0,0,2.23,1.51,2.43,2.43,0,0,0,1.83-.77l2,1.19a4.45,4.45,0,0,1-3.83,1.88c-3,0-5-1.9-5-4.67a4.61,4.61,0,0,1,4.6-4.68C235.82,321.5,238.14,323.29,237.79,327Zm-2.58-1.73a1.81,1.81,0,0,0-1.94-1.51,1.92,1.92,0,0,0-1.91,1.51Z" transform="translate(-183.97 -166)"/><path class="cls-7" d="M239.17,319.22a1.5,1.5,0,1,1,3,0,1.5,1.5,0,1,1-3,0Zm.07,2.49h2.85v8.91h-2.85Z" transform="translate(-183.97 -166)"/><path class="cls-7" d="M249.54,330.62,248,327.86l-1.53,2.76h-3.21l2.83-4.46-2.69-4.45h3.21l1.39,2.78,1.41-2.78h3.21l-2.69,4.45,2.83,4.46Z" transform="translate(-183.97 -166)"/><path class="cls-7" d="M261.3,318.32v12.3h-2.86v-12.3Z" transform="translate(-183.97 -166)"/><path class="cls-7" d="M266.62,319.36l-2.23,3.58-1.42-.8,1.76-3.87Z" transform="translate(-183.97 -166)"/><path class="cls-7" d="M277,327h-6.43a2.11,2.11,0,0,0,2.23,1.51,2.43,2.43,0,0,0,1.83-.77l2,1.19a4.45,4.45,0,0,1-3.83,1.88c-3,0-5-1.9-5-4.67a4.61,4.61,0,0,1,4.61-4.68C275,321.5,277.32,323.29,277,327Zm-2.58-1.73a1.8,1.8,0,0,0-1.94-1.51,1.92,1.92,0,0,0-1.91,1.51Z" transform="translate(-183.97 -166)"/><path class="cls-7" d="M285.59,327.86c0,1.88-1.39,3-4,3-1.79,0-3.51-.58-3.88-2.14l2.58-.81c.11.35.46.72,1.27.72.6,0,1.07-.18,1.07-.63,0-.62-.93-.58-2-.81-1.71-.39-2.64-1-2.64-2.74s1.6-2.94,3.83-2.94a3.34,3.34,0,0,1,3.43,2.27l-2.39.58a1,1,0,0,0-1-.65c-.56,0-1.09.16-1.09.65s1,.61,1.67.75C284.7,325.58,285.59,326.23,285.59,327.86Z" transform="translate(-183.97 -166)"/><path class="cls-7" d="M296.55,326.18c0,2.33-1.51,4.67-4.27,4.67a3,3,0,0,1-2.51-1.09V334h-2.86v-12.3h2.86v.88a3,3,0,0,1,2.51-1.09C295,321.5,296.55,323.84,296.55,326.18Zm-2.88,0a1.91,1.91,0,1,0-1.91,1.89A1.81,1.81,0,0,0,293.67,326.18Z" transform="translate(-183.97 -166)"/><path class="cls-7" d="M307,326.18a4.78,4.78,0,1,1-4.78-4.68A4.6,4.6,0,0,1,307,326.18Zm-2.87,0a1.91,1.91,0,1,0-3.81,0,1.91,1.91,0,0,0,3.81,0Z" transform="translate(-183.97 -166)"/><path class="cls-7" d="M314,321.5v3.06c-2.53-.39-2.81,1.05-2.81,2.55v3.51h-2.84v-8.91h2.84v1.36A3.38,3.38,0,0,1,314,321.5Z" transform="translate(-183.97 -166)"/><path class="cls-7" d="M318.87,324.07v2.81c0,.93.34,1.4,1.21,1.4a3.58,3.58,0,0,0,.55,0v2.39a3.55,3.55,0,0,1-1.23.16c-2.74,0-3.37-1.86-3.37-3.6v-3.11h-1.11v-2.36H316v-1.86h2.84v1.86h1.76v2.36Z" transform="translate(-183.97 -166)"/><path class="cls-7" d="M323,326.18l-.4-7.86h3.14l-.4,7.86Zm2.74,3.09a1.57,1.57,0,1,1-1.58-1.58A1.57,1.57,0,0,1,325.7,329.27Z" transform="translate(-183.97 -166)"/></g></svg>