<svg xmlns="http://www.w3.org/2000/svg" viewBox="0 0 170.08 48.78"><defs><style>.cls-1{fill:#669;fill-opacity:0.7;}.cls-2{fill:#003;}</style></defs><g id="logos"><path class="cls-1" d="M202.55,231.27H330.11c11.74,0,21.26,10.93,21.26,24.4h0c0,13.47-9.52,24.39-21.26,24.39H202.55c-11.74,0-21.26-10.92-21.26-24.39h0C181.29,242.2,190.81,231.27,202.55,231.27Z" transform="translate(-181.29 -231.27)"/><path class="cls-2" d="M224.5,260.73l-3-4.09a3,3,0,0,0,2-2.85,3.38,3.38,0,0,0-3.47-3.29H216.9v10.23h1.61v-4h1.25l2.76,4Zm-6-5.29v-3.35h1.61a1.71,1.71,0,0,1,1.77,1.66,1.75,1.75,0,0,1-1.77,1.69Zm13.17-3.36V250.5h-6.09v10.23h6.09v-1.6h-4.49V256.3h3.87v-1.6h-3.87v-2.62ZM243,255.14h-4.84v1.48h3.16v0c0,1.56-1.32,2.63-3.07,2.63a3.67,3.67,0,1,1-.15-7.33,4.26,4.26,0,0,1,2.85,1.28l.89-1.34a5.64,5.64,0,0,0-3.72-1.56,5.29,5.29,0,1,0,.06,10.57,4.74,4.74,0,0,0,4.86-5A6.69,6.69,0,0,0,243,255.14Zm1.52,5.59h1.61V250.5h-1.61Zm6.53.17c2.08,0,3.65-1.17,3.65-3,0-1.61-1.25-2.39-2.87-3.11-1.24-.53-2.19-.81-2.19-1.61a1.53,1.53,0,0,1,1.69-1.31,1.9,1.9,0,0,1,1.76,1.08l1.2-.83a3,3,0,0,0-3-1.83,3,3,0,0,0-3.3,2.85c0,1.6,1.33,2.23,2.53,2.76s2.54,1.08,2.54,2c0,.78-.87,1.33-2,1.33a2.56,2.56,0,0,1-2.29-1.25l-1.27.9A3.78,3.78,0,0,0,251.08,260.9Zm11.45-10.4h-7.1v1.59h2.75v8.64h1.61v-8.64h2.74Zm8.88,10.23-3-4.09a3,3,0,0,0,2-2.85A3.38,3.38,0,0,0,267,250.5h-3.18v10.23h1.6v-4h1.26l2.76,4Zm-6-5.29v-3.35H267a1.71,1.71,0,0,1,1.77,1.66,1.75,1.75,0,0,1-1.77,1.69Zm14.22,5.29h1.74l-4.82-10.44h-.09l-4.81,10.44h1.74l.7-1.55h4.84Zm-4.92-2.93,1.8-4,1.8,4Zm15.39,2.93-3-4.09a3,3,0,0,0,2-2.85,3.38,3.38,0,0,0-3.47-3.29h-3.18v10.23h1.6v-4h1.26l2.76,4Zm-6-5.29v-3.35h1.61a1.71,1.71,0,0,1,1.77,1.66,1.75,1.75,0,0,1-1.77,1.69Zm6.59,1h5V255h-5Zm9.44,4.45c2.08,0,3.65-1.17,3.65-3,0-1.61-1.25-2.39-2.87-3.11-1.25-.53-2.19-.81-2.19-1.61a1.53,1.53,0,0,1,1.69-1.31,1.91,1.91,0,0,1,1.76,1.08l1.19-.83a3,3,0,0,0-3-1.83,3,3,0,0,0-3.29,2.85c0,1.6,1.33,2.23,2.53,2.76s2.54,1.08,2.54,2c0,.78-.87,1.33-2,1.33a2.56,2.56,0,0,1-2.29-1.25l-1.27.9A3.77,3.77,0,0,0,300.15,260.9Zm11.13-8.82V250.5h-6.09v10.23h6.09v-1.6h-4.49V256.3h3.87v-1.6h-3.87v-2.62Z" transform="translate(-181.29 -231.27)"/></g></svg>